<?xml version="1.0" standalone="no"?>
<!DOCTYPE svg PUBLIC "-//W3C//DTD SVG 20010904//EN"
 "http://www.w3.org/TR/2001/REC-SVG-20010904/DTD/svg10.dtd">
<svg version="1.0" xmlns="http://www.w3.org/2000/svg"
 width="31.000000pt" height="37.000000pt" viewBox="0 0 31.000000 37.000000"
 preserveAspectRatio="xMidYMid meet">

<g transform="translate(0.000000,37.000000) scale(0.100000,-0.100000)"
fill="#000000" stroke="none">
<path d="M96 304 c-27 -26 -18 -34 39 -34 38 0 55 4 55 13 0 36 -65 51 -94 21z"/>
<path d="M20 261 c0 -5 7 -14 15 -21 23 -19 19 -48 -7 -52 -30 -4 -30 -22 0
-26 17 -3 22 -10 22 -33 0 -17 -6 -32 -15 -35 -19 -8 -20 -34 -1 -34 7 0 19 7
26 15 8 9 21 13 36 9 23 -6 24 -5 24 60 0 52 3 66 15 66 12 0 15 -14 15 -66 0
-65 0 -66 25 -62 14 3 30 -1 36 -8 15 -18 39 -18 39 0 0 7 -7 19 -15 26 -23
19 -19 58 5 62 27 4 27 22 0 26 -24 4 -27 34 -5 52 8 7 15 16 15 21 0 14 -26
10 -40 -6 -9 -10 -32 -15 -75 -15 -43 0 -66 5 -75 15 -14 16 -40 20 -40 6z"/>
</g>
</svg>
